<svg width="14" height="14" viewBox="0 0 14 14" fill="none" xmlns="http://www.w3.org/2000/svg">
<path d="M6.01212 0.927074C6.31142 0.00575399 7.61482 0.00575399 7.91422 0.927074L8.80132 3.65735C8.93512 4.06937 9.31912 4.34834 9.75232 4.34834H12.6231C13.5918 4.34834 13.9946 5.58794 13.2109 6.15735L10.8883 7.84482C10.5379 8.09943 10.3912 8.55083 10.5251 8.96283L11.4122 11.6932C11.7115 12.6145 10.657 13.3806 9.87332 12.8112L7.55092 11.1238C7.20042 10.8691 6.72582 10.8691 6.37532 11.1238L4.05292 12.8112C3.26922 13.3806 2.21472 12.6145 2.51402 11.6932L3.40122 8.96283C3.53502 8.55083 3.38842 8.09943 3.03792 7.84482L0.715323 6.15734C-0.0683767 5.58794 0.334424 4.34834 1.30312 4.34834H4.17392C4.60712 4.34834 4.99112 4.06937 5.12502 3.65735L6.01212 0.927074Z" fill="#FFA858"/>
</svg>
